<svg width="16" height="16" viewBox="0 0 16 16" fill="none" xmlns="http://www.w3.org/2000/svg">
<path d="M4 6.66667V5.33334C4 3.12667 4.66667 1.33334 8 1.33334C11.3333 1.33334 12 3.12667 12 5.33334V6.66667" stroke="#8A8A8A" stroke-width="1.5" stroke-linecap="round" stroke-linejoin="round"/>
<path d="M7.99999 12.3333C8.92047 12.3333 9.66666 11.5871 9.66666 10.6667C9.66666 9.74619 8.92047 9 7.99999 9C7.07952 9 6.33333 9.74619 6.33333 10.6667C6.33333 11.5871 7.07952 12.3333 7.99999 12.3333Z" stroke="#8A8A8A" stroke-width="1.5" stroke-linecap="round" stroke-linejoin="round"/>
<path d="M11.3333 14.6667H4.66666C1.99999 14.6667 1.33333 14 1.33333 11.3333V10C1.33333 7.33334 1.99999 6.66667 4.66666 6.66667H11.3333C14 6.66667 14.6667 7.33334 14.6667 10V11.3333C14.6667 14 14 14.6667 11.3333 14.6667Z" stroke="#8A8A8A" stroke-width="1.5" stroke-linecap="round" stroke-linejoin="round"/>
</svg>
